<svg width="19" height="22" viewBox="0 0 19 22" fill="none" xmlns="http://www.w3.org/2000/svg">
<path fill-rule="evenodd" clip-rule="evenodd" d="M15.7657 11.6288C15.7394 8.87335 18.0171 7.54534 18.1199 7.48241C16.8409 5.60734 14.8454 5.35065 14.1348 5.32065C12.4384 5.15031 10.8241 6.32074 9.96281 6.32074C9.10388 6.32074 7.77394 5.3466 6.36813 5.3743C4.51706 5.40003 2.81195 6.44889 1.85892 8.10461C-0.0616556 11.4393 1.36799 16.3781 3.24093 19.0834C4.15505 20.4045 5.24765 21.8947 6.68036 21.8409C8.06238 21.7867 8.58274 20.9496 10.2495 20.9496C11.9176 20.9496 12.3861 21.8409 13.8479 21.8134C15.3309 21.7867 16.2739 20.4641 17.1824 19.1377C18.2326 17.6012 18.6651 16.1138 18.6902 16.0366C18.6583 16.025 15.7957 14.926 15.7657 11.6289L15.7657 11.6288Z" fill="white"/>
<path fill-rule="evenodd" clip-rule="evenodd" d="M13.0245 3.53303C13.7858 2.61019 14.2967 1.32962 14.1567 0.0527344C13.0608 0.0962719 11.7321 0.784264 10.9471 1.70422C10.2415 2.52057 9.62392 3.82417 9.79137 5.07432C11.0139 5.16938 12.2627 4.45408 13.0245 3.53303Z" fill="white"/>
</svg>
