<svg width="123" height="105" viewBox="0 0 123 105" fill="none" xmlns="http://www.w3.org/2000/svg">
<path d="M0.000110534 95.2731C0.000110534 97.7763 0.986158 100.177 2.74162 101.948C4.49712 103.718 6.87849 104.713 9.36094 104.713H112.805C115.287 104.713 117.669 103.718 119.424 101.948C121.181 100.177 122.167 97.7762 122.167 95.2731V55.2646H0L0.000110534 95.2731Z" fill="white" fill-opacity="0.1"/>
<path d="M112.743 17.8798H87.1236C86.6992 13.0021 84.4789 8.46114 80.9016 5.15229C77.3231 1.84231 72.6466 0.00449687 67.7925 0H54.3124C49.4584 0.00439147 44.7818 1.84223 41.2033 5.15229C37.6259 8.46114 35.4056 13.0021 34.9813 17.8798H9.36193C6.87942 17.8798 4.49816 18.8745 2.74262 20.6454C0.986041 22.4162 0 24.8185 0 27.3226V46.5397H122.167V27.3864C122.184 24.8591 121.196 22.4317 119.425 20.6456C117.654 18.8594 115.247 17.8626 112.743 17.8801L112.743 17.8798ZM43.1731 17.8798C44.0155 11.5848 47.8541 8.2318 54.3132 8.2318H67.7934C74.3146 8.2318 78.0912 11.521 78.9335 17.8798H43.1731Z" fill="white" fill-opacity="0.1"/>
</svg>
