<svg width="31" height="27" viewBox="0 0 31 27" fill="none" xmlns="http://www.w3.org/2000/svg">
<path d="M2.80482e-05 24.1761C2.80482e-05 24.8113 0.250239 25.4206 0.695691 25.8698C1.14115 26.319 1.74543 26.5715 2.37535 26.5715H28.6244C29.2543 26.5715 29.8586 26.319 30.3041 25.8698C30.7498 25.4206 31 24.8113 31 24.1761V14.0239H0L2.80482e-05 24.1761Z" fill="#B70019"/>
<path d="M28.6087 4.53703H22.1077C22 3.29931 21.4366 2.14703 20.5289 1.3074C19.6208 0.467489 18.4342 0.00114109 17.2024 0H13.7818C12.5501 0.00111434 11.3635 0.467468 10.4554 1.3074C9.54763 2.14703 8.98423 3.29931 8.87655 4.53703H2.3756C1.74566 4.53703 1.14142 4.78943 0.695943 5.23879C0.250209 5.68815 0 6.29772 0 6.93316V11.8095H30.9999V6.94935C31.0044 6.30804 30.7536 5.69208 30.3043 5.23886C29.855 4.7856 29.2441 4.53265 28.6086 4.5371L28.6087 4.53703ZM10.9552 4.53703C11.169 2.93965 12.143 2.08883 13.782 2.08883H17.2027C18.8574 2.08883 19.8158 2.92347 20.0295 4.53703H10.9552Z" fill="#B70019"/>
</svg>
