<svg width="36" height="30" viewBox="0 0 36 30" fill="none" xmlns="http://www.w3.org/2000/svg">
<path d="M33.4188 6.54769H25.5986C25.4101 2.31841 22.3344 0 18.5464 0C14.7596 0 11.6802 2.31848 11.4928 6.54769H3.14419C1.55556 6.54769 0 7.51181 0 9.05572V27.2026C0 28.7465 1.55556 30 3.14419 30H33.419C35.0077 30 36 28.7465 36 27.2026V9.05572C36 7.51181 35.0077 6.54769 33.419 6.54769H33.4188ZM13.8266 6.54769C14.009 4.24075 16.0414 2.26589 18.5459 2.26589C21.0468 2.26589 23.0817 4.24081 23.2677 6.54769H13.8266Z" fill="#FFC700"/>
<path d="M20.0203 12H16.9797V16.5831H12V19.382H16.9797V24H20.0203V19.382H25V16.5831H20.0203V12Z" fill="white"/>
</svg>
