<svg width="24" height="21" viewBox="0 0 24 21" fill="none" xmlns="http://www.w3.org/2000/svg">
<path d="M2.17148e-05 18.7169C2.17148e-05 19.2087 0.193733 19.6804 0.538599 20.0282C0.883471 20.3759 1.3513 20.5715 1.83898 20.5715H22.1608C22.6485 20.5715 23.1163 20.3759 23.4612 20.0282C23.8063 19.6804 24 19.2087 24 18.7169V10.8572H0L2.17148e-05 18.7169Z" fill="#9F9E9E"/>
<path d="M22.1487 3.51254H17.1157C17.0323 2.55431 16.5961 1.66221 15.8933 1.01218C15.1903 0.361927 14.2716 0.000883422 13.318 0H10.6698C9.71623 0.000862717 8.79751 0.361911 8.0945 1.01218C7.39171 1.66221 6.95553 2.55431 6.87217 3.51254H1.83918C1.35148 3.51254 0.883676 3.70795 0.538795 4.05584C0.19371 4.40373 0 4.87565 0 5.36761V9.14286H24V5.38014C24.0034 4.88365 23.8092 4.40678 23.4614 4.05589C23.1135 3.70498 22.6406 3.50915 22.1486 3.5126L22.1487 3.51254ZM8.48147 3.51254C8.64696 2.27586 9.40107 1.61716 10.67 1.61716H13.3182C14.5993 1.61716 15.3412 2.26333 15.5067 3.51254H8.48147Z" fill="#9F9E9E"/>
</svg>
