<svg width="8" height="8" viewBox="0 0 8 8" fill="none" xmlns="http://www.w3.org/2000/svg">
<path d="M7.30997 2.7572C7.18048 2.78587 7.06768 2.86484 6.99634 2.97682C6.92512 3.08868 6.90118 3.22437 6.92996 3.35402C7.12365 4.23501 6.91073 5.1564 6.35022 5.86312C5.78983 6.56972 4.94118 6.98683 4.03932 6.99856C3.13759 7.01041 2.27829 6.61594 1.69951 5.9242C1.12061 5.23246 0.883642 4.31702 1.0541 3.4312C1.22445 2.54538 1.78426 1.78327 2.5785 1.35589C3.37273 0.928504 4.31703 0.881106 5.14995 1.22685C5.27304 1.28127 5.41293 1.28381 5.53782 1.23375C5.66271 1.1838 5.76222 1.0856 5.81385 0.961284C5.86548 0.836967 5.86475 0.697046 5.81204 0.573218C5.7592 0.449504 5.65873 0.352155 5.53334 0.30342C5.04693 0.102913 4.52606 -0.000241054 4 4.2298e-07C2.93917 4.2298e-07 1.9217 0.421565 1.17161 1.17185C0.421385 1.9221 0 2.93974 0 4.00081C0.00036273 5.08728 0.442525 6.12668 1.22478 6.88046C2.00695 7.63424 3.06208 8.03742 4.14749 7.99726C5.23298 7.95723 6.2554 7.47737 6.97999 6.66796C7.21806 6.40131 7.41986 6.10417 7.57994 5.78456C7.64874 5.6473 7.70895 5.50581 7.75997 5.36104C7.92042 4.92558 8.00167 4.46495 7.99997 4.00078C8.00082 3.71043 7.9695 3.4208 7.90663 3.13732C7.87798 3.00768 7.7989 2.89485 7.68706 2.82361C7.5751 2.75226 7.43945 2.72844 7.30994 2.75722L7.30997 2.7572Z" fill="#B70019"/>
<path d="M7.8583 1.11711C7.76434 1.04214 7.63693 1 7.50406 1C7.3712 1 7.24378 1.04214 7.14983 1.11711L3.58702 4.03059L2.85842 3.41635C2.7344 3.3159 2.5534 3.27493 2.38188 3.30854C2.21046 3.34215 2.07371 3.44531 2.02194 3.58025C1.97029 3.71518 2.01127 3.86192 2.12983 3.96645L3.21931 4.87446C3.31169 4.95399 3.44116 4.99942 3.57693 5C3.71137 4.99961 3.84012 4.95631 3.93454 4.87979L7.85828 1.67519C7.9492 1.60041 8 1.50034 8 1.39611C8 1.29188 7.9492 1.19182 7.85828 1.11704L7.8583 1.11711Z" fill="#B70019"/>
</svg>
