<svg width="44" height="58" viewBox="0 0 44 58" fill="none" xmlns="http://www.w3.org/2000/svg">
<path d="M0.442532 15.1997L14.73 0.508833C15.0462 0.190757 15.4255 0 15.8678 0H36.73C40.7129 0 44 3.30716 44 7.31343V50.6866C44 54.6933 40.7125 58 36.73 58H7.26997C3.28705 58 0 54.6928 0 50.6866V16.2806C0 15.8991 0.126125 15.5176 0.44231 15.1995L0.442532 15.1997ZM25.6669 46.6802C25.6669 47.5706 26.3624 48.2702 27.2474 48.2702H34.0116C34.8967 48.2702 35.5921 47.5706 35.5921 46.6802V39.9391C35.5921 39.0487 34.8967 38.3492 34.0116 38.3492H27.247C26.3619 38.3492 25.6665 39.0487 25.6665 39.9391L25.6669 46.6802ZM25.6669 32.0529C25.6669 32.9433 26.3624 33.6429 27.2474 33.6429H34.0116C34.8967 33.6429 35.5921 32.9433 35.5921 32.0529V25.3118C35.5921 24.4214 34.8967 23.7218 34.0116 23.7218H27.247C26.3619 23.7218 25.6665 24.4214 25.6665 25.3118L25.6669 32.0529ZM8.72423 44.8995H20.9255C21.8105 44.8995 22.506 44.1999 22.506 43.3096C22.506 42.4193 21.8105 41.7197 20.9255 41.7197H8.72423C7.83918 41.7197 7.14375 42.4193 7.14375 43.3096C7.14375 44.1999 7.83918 44.8995 8.72423 44.8995ZM8.72423 30.2722H20.9255C21.8105 30.2722 22.506 29.5726 22.506 28.6823C22.506 27.792 21.8105 27.0924 20.9255 27.0924H8.72423C7.83918 27.0924 7.14375 27.792 7.14375 28.6823C7.14375 29.5726 7.83918 30.2722 8.72423 30.2722ZM12.8337 15.3269C13.7187 15.3269 14.4142 14.6273 14.4142 13.737V5.40546L4.74166 15.3265L12.8337 15.3269Z" fill="#B70019"/>
</svg>
