<svg width="18" height="17" viewBox="0 0 18 17" fill="none" xmlns="http://www.w3.org/2000/svg">
<path d="M16.7474 1.6439L15.4748 0.371984C14.9795 -0.123995 14.1742 -0.123995 13.679 0.371984L12.4629 1.58747L15.5313 4.65591L16.7474 3.43985C17.2428 2.94445 17.2428 2.13988 16.7474 1.6439H16.7474Z" fill="#FFC700"/>
<path d="M13.3585 14.999C13.3585 15.0498 13.3178 15.0912 13.2671 15.0912H1.3622C1.31146 15.0912 1.27006 15.0505 1.27006 14.999V4.60991C1.27006 4.55973 1.31074 4.51848 1.3622 4.51848H8.6785L9.94857 3.24841H1.3622C0.610357 3.24841 0 3.85863 0 4.60992V14.9991C0 15.7503 0.610212 16.3613 1.3622 16.3613H13.2671C14.0183 16.3613 14.6286 15.7503 14.6286 14.9991L14.6284 6.4116L13.3584 7.68167L13.3585 14.999Z" fill="#FFC700"/>
<path d="M5.55067 8.49958L4.97461 12.1439L8.61897 11.568L14.933 5.25471L11.8645 2.18616L5.55067 8.49958Z" fill="#FFC700"/>
</svg>
