<svg width="12" height="17" viewBox="0 0 12 17" fill="none" xmlns="http://www.w3.org/2000/svg">
<path d="M10 3.5C10 5.43293 8.20907 7 6 7C3.79093 7 2 5.43293 2 3.5C2 1.56707 3.79093 0 6 0C8.20907 0 10 1.56707 10 3.5Z" fill="#B70019"/>
<path d="M7.8 8H4.2C3.08613 8 2.01778 8.44249 1.23014 9.23014C0.442491 10.0178 0 11.0861 0 12.2V15.8C0 16.1182 0.126429 16.4235 0.351429 16.6486C0.576562 16.8736 0.881794 17 1.2 17H10.8C11.1182 17 11.4235 16.8736 11.6486 16.6486C11.8736 16.4234 12 16.1182 12 15.8V12.2C12 11.0861 11.5575 10.0178 10.7699 9.23014C9.98222 8.44249 8.91387 8 7.8 8Z" fill="#B70019"/>
</svg>
