<svg width="14" height="8" viewBox="0 0 14 8" fill="none" xmlns="http://www.w3.org/2000/svg">
<path d="M7 0C3.13385 0 0 3.57005 0 3.57005C0 3.57005 3.13385 7.1401 7 7.1401C10.8661 7.1401 14 3.57005 14 3.57005C14 3.57005 10.8661 0 7 0ZM7.22166 6.25625V6.25635C6.51538 6.25676 5.83778 5.97651 5.33812 5.47724C4.83843 4.97807 4.55757 4.30067 4.55728 3.5944C4.55708 2.88802 4.83744 2.21052 5.33671 1.71096C5.83609 1.21138 6.51338 0.930623 7.21976 0.930518C7.92603 0.930417 8.60353 1.21088 9.10299 1.71023C9.60257 2.20971 9.88312 2.88708 9.88312 3.59336C9.88312 4.29942 9.60275 4.97651 9.10369 5.47588C8.60463 5.97515 7.92765 6.25591 7.22166 6.25633V6.25625Z" fill="#C4C4C4"/>
<path d="M8.31953 3.83739C8.11832 3.83708 7.92687 3.75113 7.79289 3.60098C7.65892 3.45094 7.59534 3.25085 7.61782 3.05095C7.6404 2.85096 7.74701 2.67009 7.911 2.55361C8.07498 2.43703 8.28087 2.39583 8.47699 2.44039C8.11566 2.04682 7.59055 1.84549 7.05873 1.89646C6.5268 1.94742 6.04962 2.24487 5.76956 2.69989C5.48951 3.15492 5.43897 3.71492 5.63305 4.21276C5.82714 4.7106 6.24341 5.08862 6.75753 5.23398C7.27175 5.37935 7.82433 5.27528 8.25034 4.95281C8.67636 4.63034 8.92651 4.12679 8.9262 3.59245V3.49764C8.79762 3.70963 8.56742 3.83852 8.31951 3.8374L8.31953 3.83739Z" fill="#C4C4C4"/>
</svg>
