<svg width="24" height="24" viewBox="0 0 24 24" fill="none" xmlns="http://www.w3.org/2000/svg">
<path fill-rule="evenodd" clip-rule="evenodd" d="M0.709106 11.9999C0.709106 5.76394 5.76406 0.708984 12 0.708984C18.236 0.708984 23.2909 5.76394 23.2909 11.9999C23.2909 16.8716 20.2058 21.0231 15.8825 22.6062V15.0394H18.1552L18.4559 12.199H18.4554L18.4555 12.198H15.8825L15.886 10.777C15.886 10.036 15.957 9.63977 17.0197 9.63977H18.4399V6.79759H18.4396V6.7966H16.1669C13.4373 6.7966 12.4775 8.17569 12.4775 10.493V12.198H10.7744V15.0384H10.7747V15.0394H12.4775V23.2802C12.319 23.2868 12.1602 23.2908 12 23.2908C5.76406 23.2908 0.709106 18.2358 0.709106 11.9999Z" fill="white"/>
</svg>
