<svg width="16" height="16" viewBox="0 0 16 16" fill="none" xmlns="http://www.w3.org/2000/svg">
<path d="M15.1998 8.80299H7.0559C6.82823 9.42318 6.35663 9.92237 5.75147 10.1833C5.1465 10.4443 4.4613 10.4443 3.85615 10.1833C3.25117 9.92234 2.77955 9.42318 2.5519 8.80299H0.799973C0.514086 8.80299 0.249995 8.64992 0.107141 8.4015C-0.0357136 8.15307 -0.0357136 7.84693 0.107141 7.5985C0.249995 7.35008 0.514095 7.19701 0.799973 7.19701H2.54385C2.77153 6.57682 3.24313 6.07763 3.84828 5.81668C4.45325 5.55571 5.13845 5.55571 5.74361 5.81668C6.34858 6.07766 6.82021 6.57682 7.04786 7.19701H15.1995C15.4854 7.19701 15.7495 7.35008 15.8923 7.5985C16.0352 7.84693 16.0352 8.15307 15.8923 8.4015C15.7495 8.64992 15.4854 8.80299 15.1995 8.80299H15.1998ZM4.79995 7.19701C4.58781 7.19701 4.38424 7.28161 4.23424 7.43217C4.08425 7.58273 3.99996 7.78706 3.99996 8C3.99996 8.21294 4.08425 8.41727 4.23424 8.56783C4.38424 8.71839 4.58781 8.80299 4.79995 8.80299C5.01208 8.80299 5.21565 8.71839 5.36565 8.56783C5.51564 8.41727 5.59993 8.21294 5.59993 8C5.59993 7.78706 5.51564 7.58273 5.36565 7.43217C5.21565 7.28161 5.01208 7.19701 4.79995 7.19701ZM15.1998 3.18204H11.8559C11.6282 3.80223 11.1566 4.30141 10.5515 4.56236C9.9465 4.82333 9.2613 4.82333 8.65615 4.56236C8.05118 4.30139 7.57955 3.80223 7.3519 3.18204H0.800248C0.514361 3.18204 0.25027 3.02897 0.107415 2.78054C-0.0354395 2.53211 -0.0354395 2.22597 0.107415 1.97755C0.25027 1.72913 0.51437 1.57605 0.800248 1.57605H7.34413C7.5718 0.955866 8.04341 0.456679 8.64856 0.195729C9.25353 -0.0652428 9.93873 -0.0652428 10.5439 0.195729C11.1489 0.456702 11.6205 0.955866 11.8481 1.57605H15.2C15.4859 1.57605 15.75 1.72912 15.8929 1.97755C16.0357 2.22598 16.0357 2.53212 15.8929 2.78054C15.75 3.02897 15.4859 3.18204 15.2 3.18204H15.1998ZM9.59986 1.57605C9.38772 1.57605 9.18415 1.66066 9.03415 1.81121C8.88416 1.96177 8.79987 2.16611 8.79987 2.37905C8.79987 2.59198 8.88416 2.79632 9.03415 2.94688C9.18415 3.09744 9.38772 3.18204 9.59986 3.18204C9.81199 3.18204 10.0156 3.09744 10.1656 2.94688C10.3156 2.79632 10.3998 2.59198 10.3998 2.37905C10.3998 2.16611 10.3156 1.96177 10.1656 1.81121C10.0156 1.66066 9.81199 1.57605 9.59986 1.57605ZM0.800019 12.818H9.74385C9.97153 12.1978 10.4431 11.6986 11.0483 11.4376C11.6533 11.1767 12.3385 11.1767 12.9436 11.4376C13.5486 11.6986 14.0202 12.1978 14.2479 12.818H15.1998C15.4857 12.818 15.7498 12.971 15.8926 13.2195C16.0355 13.4679 16.0355 13.774 15.8926 14.0225C15.7498 14.2709 15.4857 14.4239 15.1998 14.4239H14.2559C14.0282 15.0441 13.5566 15.5433 12.9515 15.8043C12.3465 16.0652 11.6613 16.0652 11.0561 15.8043C10.4512 15.5433 9.97955 15.0441 9.7519 14.4239H0.800294C0.514406 14.4239 0.250316 14.2709 0.107461 14.0225C-0.0353935 13.774 -0.0353935 13.4679 0.107461 13.2195C0.250316 12.971 0.514415 12.818 0.800294 12.818H0.800019ZM11.9998 14.4239C12.2119 14.4239 12.4155 14.3393 12.5655 14.1888C12.7155 14.0382 12.7998 13.8339 12.7998 13.621C12.7998 13.408 12.7155 13.2037 12.5655 13.0531C12.4155 12.9026 12.2119 12.818 11.9998 12.818C11.7877 12.818 11.5841 12.9026 11.4341 13.0531C11.2841 13.2037 11.1998 13.408 11.1998 13.621C11.1998 13.8339 11.2841 14.0382 11.4341 14.1888C11.5841 14.3393 11.7877 14.4239 11.9998 14.4239Z" fill="#121111" fill-opacity="0.12"/>
</svg>
