<svg width="23" height="24" viewBox="0 0 23 24" fill="none" xmlns="http://www.w3.org/2000/svg">
<path fill-rule="evenodd" clip-rule="evenodd" d="M16.2291 6.50553C15.028 5.38507 13.4396 4.77341 11.7972 4.79891C10.3467 4.80898 8.93587 5.27407 7.76372 6.12862C6.59157 6.98317 5.7172 8.18408 5.26388 9.56201L5.26291 9.56126L5.26294 9.56199C5.02286 10.2938 4.89827 11.0586 4.89365 11.8288C4.89653 12.6003 5.02589 13.366 5.2766 14.0956L5.27649 14.0957L5.27664 14.0957C5.72553 15.4739 6.59701 16.6757 7.76744 17.5307C8.93787 18.3856 10.3478 18.8503 11.7972 18.8588C13.5038 18.8588 14.8028 18.3876 15.7706 17.7124L15.7707 17.7119C16.3918 17.2821 16.9196 16.7311 17.3223 16.092C17.725 15.453 17.9942 14.739 18.1139 13.9932H11.7972V9.7397H22.5584C22.7328 10.5082 22.8142 11.295 22.8006 12.0829H22.8002C22.8002 15.5724 21.5518 18.5143 19.3869 20.5138L19.3876 20.5143C17.4898 22.2718 14.8918 23.2907 11.7972 23.2907H11.7977C9.67291 23.2912 7.58991 22.7006 5.78158 21.5851C3.97325 20.4695 2.51088 18.8729 1.55798 16.9738L1.55803 16.9737L1.55794 16.9737C0.754097 15.3778 0.335388 13.6157 0.335388 11.8287C0.335388 10.0418 0.754057 8.27978 1.55783 6.68388L1.55756 6.68367C2.51049 4.78463 3.97287 3.18808 5.7812 2.07255C7.58953 0.957028 9.67251 0.366503 11.7972 0.367008C14.6418 0.332796 17.3893 1.40073 19.464 3.34708L16.2291 6.50553Z" fill="white"/>
</svg>
