<svg width="27" height="27" viewBox="0 0 27 27" fill="none" xmlns="http://www.w3.org/2000/svg">
<path fill-rule="evenodd" clip-rule="evenodd" d="M13.0031 0.993164C18.0904 0.993164 22.2314 5.21635 22.2314 10.4315C22.2314 11.9805 21.4446 13.8661 20.294 15.7288C17.7768 19.8048 13.5839 23.8306 13.5839 23.8306C13.2594 24.1424 12.747 24.1424 12.4225 23.8306C12.4225 23.8306 8.22946 19.8046 5.7124 15.7288C4.56185 13.8663 3.77497 11.9807 3.77497 10.4315C3.77497 5.21664 7.91575 0.993164 13.0033 0.993164H13.0031ZM13.0031 2.67105C8.8301 2.67105 5.45261 6.15395 5.45261 10.4315C5.45261 12.1946 6.75072 14.4245 8.24639 16.4934C9.97672 18.8874 12.0226 21.0487 13.0031 22.0424C13.9836 21.0485 16.0295 18.8873 17.7598 16.4934C19.2555 14.4244 20.5536 12.1944 20.5536 10.4315C20.5536 6.15419 17.1761 2.67105 13.0031 2.67105Z" fill="#B70019"/>
<path fill-rule="evenodd" clip-rule="evenodd" d="M13.003 5.18799C14.3921 5.18799 15.6505 5.75147 16.5615 6.66309C17.4731 7.57413 18.0366 8.83254 18.0366 10.2216C18.0366 13.0001 15.7814 15.2553 13.003 15.2553C10.2245 15.2553 7.96932 13.0001 7.96932 10.2216C7.96932 7.44321 10.2245 5.18799 13.003 5.18799ZM13.003 6.86587C11.1509 6.86587 9.64721 8.36959 9.64721 10.2216C9.64721 12.0737 11.1509 13.5774 13.003 13.5774C14.855 13.5774 16.3587 12.0737 16.3587 10.2216C16.3587 9.29583 15.9827 8.45689 15.3752 7.8494C14.7677 7.24191 13.9288 6.86587 13.003 6.86587Z" fill="#B70019"/>
<path fill-rule="evenodd" clip-rule="evenodd" d="M1.74387 23.2501C1.77964 23.2889 1.82308 23.332 1.86203 23.3629C2.03806 23.5011 2.27045 23.6323 2.54948 23.7614C4.50843 24.6675 8.4585 25.3224 13.0032 25.3224C17.5481 25.3224 21.4981 24.6675 23.4569 23.7614C23.7357 23.6323 23.9683 23.5011 24.1441 23.3629C24.1833 23.332 24.2267 23.2889 24.2623 23.2501C24.1628 23.1765 23.9921 23.058 23.8335 22.9857C22.9303 22.5732 21.4206 22.2591 19.5294 21.9814C19.0712 21.9142 18.7535 21.488 18.8208 21.0299C18.8882 20.5719 19.3144 20.2541 19.7726 20.3215C22.2556 20.6854 24.1411 21.159 25.0546 21.7403C25.7274 22.1682 26.0068 22.6985 26.0068 23.2247C26.0068 23.5846 25.8774 23.9537 25.5789 24.3044C25.2947 24.6385 24.82 24.9797 24.1614 25.2842C22.0694 26.2522 17.8578 27.0001 13.0034 27.0001C8.14909 27.0001 3.9376 26.2522 1.84552 25.2842C1.18693 24.9797 0.711992 24.6385 0.427952 24.3044C0.129452 23.9537 5.34058e-05 23.5846 5.34058e-05 23.2247C5.34058e-05 22.7009 0.276268 22.1742 0.941826 21.7474C1.84256 21.1704 3.70189 20.6987 6.15573 20.3328C6.61359 20.2646 7.04112 20.5809 7.10929 21.0389C7.17746 21.497 6.86117 21.9241 6.40329 21.9923C4.53738 22.2704 3.04977 22.5827 2.16083 22.9925C2.00746 23.0631 1.84192 23.1781 1.74417 23.2502L1.74387 23.2501Z" fill="#B70019"/>
</svg>
