<svg width="512" height="512" viewBox="0 0 512 512" fill="none" xmlns="http://www.w3.org/2000/svg">
    <rect width="512" height="512" fill="#333030"/>
    <path d="M438.285 248.206C437.117 247.286 437.146 247.278 436.925 245.647C434.618 228.458 426.303 216.466 412.305 209.518C402.872 204.829 393.011 204.813 382.98 206.29C364.59 208.985 347.702 226.037 344.662 245.567C343.594 252.186 343.238 258.928 343.601 265.645C344.562 282.084 350.507 295.585 362.497 305.277C374.052 314.623 387.116 316.576 400.807 314.687C412.426 313.073 422.771 308.312 430.831 298.224C432.091 296.65 432.361 295.69 430.831 294.076C427.114 290.13 423.519 286.006 420.002 281.842C418.841 280.454 418.144 280.413 416.848 281.632C412.817 285.404 408.145 288.195 403.121 289.831C388.426 294.673 374.685 285.901 371.218 269.995H438.285V248.206ZM410.639 250.869C404.132 250.764 397.618 250.869 391.103 250.869V251.119C384.696 251.119 378.288 251.119 371.923 251.119C370.862 251.119 369.225 251.603 370.015 249.174C374.166 236.351 383.357 227.562 393.332 227.998C398.169 228.254 402.768 230.45 406.309 234.195C409.85 237.939 412.101 242.988 412.661 248.44C412.911 250.441 412.384 250.893 410.639 250.869Z" fill="white"/>
    <path d="M73.8818 173.227C75.3058 173.154 76.7297 173.001 78.1536 173.001C109.081 173.001 140.016 173.194 170.944 172.912C186.222 172.767 196.795 181.022 204.256 195.226C214.9 215.474 208.236 240.781 190.48 254.404C189.156 255.429 188.543 255.098 187.632 253.823C183.218 247.528 178.718 241.306 174.041 234.777C179.516 231.977 183.595 227.918 185.104 221.131C188.08 207.759 181.651 198.72 169.52 198.801C137.631 198.978 105.756 198.978 73.8818 199.035V173.227Z" fill="white"/>
    <path d="M267.599 278.872C277.388 287.16 287.74 292.268 299.637 292.591C302.13 292.613 304.605 292.118 306.942 291.13C309.889 289.984 311.975 287.717 312.103 284.19C312.239 280.542 310.053 278.307 307.12 277.177C299.957 274.401 292.717 271.867 285.597 268.962C277.053 265.467 269.435 260.593 265.705 250.401C259.867 234.389 266.417 216.078 280.585 209.647C299.879 200.899 318.162 204.466 335.74 215.893C337.506 217.039 337.307 217.967 336.452 219.637C333.661 224.923 330.942 230.258 328.357 235.673C327.396 237.69 326.67 237.94 324.954 236.609C317.457 230.806 308.992 227.982 300.035 226.739C298.151 226.478 296.242 226.565 294.383 226.997C290.951 227.804 288.886 230.072 288.338 233.921C287.818 237.593 289.541 240.071 292.154 241.862C296.362 244.751 300.99 246.309 305.774 247.439C314.061 249.408 322.078 252.144 328.663 258.6C344.754 274.361 341.479 300.29 321.715 309.522C300.797 319.303 280.556 317.197 261.518 302.711C258.621 300.508 258.008 298.789 259.902 295.262C262.771 290.041 265.05 284.432 267.599 278.872Z" fill="white"/>
    <path d="M89.8438 233.623C99.6546 233.623 109.594 233.623 119.533 233.575C120.171 233.54 120.806 233.691 121.378 234.013C121.95 234.335 122.439 234.818 122.8 235.415C141.378 261.696 159.958 287.962 178.54 314.211C178.597 314.284 178.54 314.445 178.54 315.067C174.731 315.067 170.901 315.067 167.07 315.067C160.314 315.067 153.543 314.938 146.808 315.002C146.064 315.071 145.317 314.92 144.64 314.565C143.962 314.211 143.378 313.663 142.942 312.976C125.337 287.195 107.705 261.435 90.0431 235.697C89.7655 235.294 89.3027 234.987 89.8438 233.623Z" fill="white"/>
    <path d="M242.616 307.246C232.456 304.317 223.756 299.435 217.384 290.065C216.42 288.706 215.893 287.015 215.889 285.272C215.54 260.061 215.177 234.841 214.714 209.63C214.657 206.887 215.576 206.612 217.562 206.669C224.895 206.862 232.243 207.024 239.583 206.927C241.968 206.927 242.481 207.734 242.481 210.292C242.481 238.747 242.545 267.194 242.609 295.642C242.616 299.378 242.616 303.082 242.616 307.246Z" fill="white"/>
    <path d="M425.114 166.899C418.258 174.162 411.765 181.006 405.315 187.881C404.911 188.356 404.425 188.73 403.887 188.98C403.349 189.23 402.771 189.351 402.189 189.334C395.34 189.27 388.491 189.334 381.685 189.334C381.158 187.833 382.204 187.236 382.681 186.429C387.993 177.407 393.432 168.481 398.608 159.37C400.032 156.908 401.143 156.699 403.421 157.756C410.427 160.879 417.553 163.728 425.114 166.899Z" fill="white"/>
    <path d="M216.822 189.294L228.021 170.45C230.328 166.569 232.734 162.751 234.891 158.765C235.909 156.884 236.856 156.659 238.601 157.425C245.763 160.556 252.975 163.526 260.088 166.52C260.914 167.658 259.917 168.021 259.511 168.457C253.469 174.892 247.42 181.299 241.363 187.68C240.694 188.39 240.153 189.294 239.042 189.294C231.88 189.294 224.717 189.294 216.822 189.294Z" fill="white"/>
    <path d="M402.693 340.141C402.693 342.863 401.978 345.523 400.64 347.783C399.303 350.043 397.402 351.802 395.18 352.834C392.958 353.866 390.515 354.126 388.162 353.58C385.81 353.034 383.654 351.707 381.968 349.768C380.283 347.829 379.145 345.366 378.698 342.691C378.251 340.017 378.516 337.252 379.46 334.749C380.403 332.246 381.982 330.118 383.996 328.635C386.01 327.152 388.367 326.381 390.768 326.422C393.947 326.475 396.98 327.943 399.211 330.51C401.443 333.078 402.694 336.537 402.693 340.141Z" fill="white"/>
    <path d="M236.209 314.76L235.81 315.22C226.142 315.22 216.424 314.582 206.805 315.397C203.815 315.686 200.803 315.413 197.891 314.59C192.366 312.976 187.682 309.426 183.353 304.713L182.798 304.099C175.336 295.755 169.662 285.772 163.326 276.403C154.889 263.943 146.609 251.345 138.293 238.78C137.695 237.884 136.705 237.166 136.776 235.802L136.492 235.382H168.886L210.094 293.487C210.892 294.375 211.691 295.255 212.494 296.126C219.271 303.478 226.291 310.507 235.276 314.324C235.604 314.437 235.917 314.607 236.209 314.76Z" fill="#B70019"/>
</svg>