<svg width="18" height="24" viewBox="0 0 18 24" fill="none" xmlns="http://www.w3.org/2000/svg">
<path d="M8.99974 0.000200499C13.9627 0.000200499 18 3.83056 18 8.53932C18 17.3135 9.66755 23.6355 9.31359 23.8994C9.22254 23.9665 9.11137 24 9 24C8.88862 24 8.77746 23.9665 8.68641 23.8992C8.33217 23.6352 0 17.3138 0 8.53912C0 3.83062 4.03722 0 9.00026 0L8.99974 0.000200499ZM8.99974 12.8881C11.5243 12.8881 13.5833 10.9392 13.5833 8.53937C13.5833 6.14416 11.5241 4.19066 8.99974 4.19066C6.47008 4.19066 4.41619 6.14432 4.41619 8.53937C4.41619 10.9394 6.47008 12.8881 8.99974 12.8881Z" fill="#B70019"/>
</svg>
