<svg width="13" height="13" viewBox="0 0 13 13" fill="none" xmlns="http://www.w3.org/2000/svg">
<path d="M6.30412 0.00021124C7.97618 0.00021124 9.57968 0.664398 10.7619 1.84667C11.9442 3.02907 12.6084 4.6326 12.6084 6.30448C12.6084 7.97637 11.9442 9.58004 10.7619 10.7623C9.57954 11.9446 7.97601 12.6088 6.30412 12.6088C4.63224 12.6088 3.02857 11.9446 1.8463 10.7623C0.664038 9.5799 -0.000148773 7.97637 -0.000148773 6.30448C-0.000148773 5.19779 0.291193 4.11062 0.844481 3.15217C1.39778 2.19376 2.19361 1.39793 3.15202 0.844632C4.11043 0.291336 5.19764 0 6.30434 0L6.30412 0.00021124ZM6.30412 11.0331V11.0329C7.55816 11.0329 8.7609 10.5348 9.64758 9.64808C10.5343 8.76141 11.0324 7.55863 11.0324 6.30463C11.0324 5.05063 10.5343 3.84785 9.64758 2.96118C8.7609 2.0745 7.55813 1.57634 6.30412 1.57634C5.05012 1.57634 3.84734 2.0745 2.96067 2.96118C2.074 3.84785 1.57583 5.05063 1.57583 6.30463C1.57583 7.55863 2.074 8.76141 2.96067 9.64808C3.84734 10.5348 5.05012 11.0329 6.30412 11.0329V11.0331Z" fill="#C4C4C4"/>
<path d="M7.09277 5.91064H5.51662V9.45692H7.09277V5.91064Z" fill="#C4C4C4"/>
<path d="M5.51664 3.94104C5.51664 4.37631 5.86944 4.72911 6.30471 4.72911C6.73998 4.72911 7.09277 4.37631 7.09277 3.94104C7.09277 3.50577 6.73998 3.15283 6.30471 3.15283C5.86944 3.15283 5.51664 3.50577 5.51664 3.94104Z" fill="#C4C4C4"/>
</svg>
