<svg width="13" height="13" viewBox="0 0 13 13" fill="none" xmlns="http://www.w3.org/2000/svg">
<path d="M12.9999 10.6152V11.0731C12.9999 11.188 12.9541 11.2982 12.8727 11.3795C12.7911 11.4607 12.6806 11.5065 12.5654 11.5065H0.434605C0.319311 11.5065 0.208765 11.4607 0.127319 11.3795C0.0457759 11.2982 0 11.188 0 11.0731V10.6152C0 10.5003 0.0457733 10.3901 0.127319 10.3088C0.208762 10.2276 0.319309 10.1818 0.434605 10.1818H1.25309C1.70547 9.65105 2.0058 9.00832 2.1222 8.32146V4.56588C2.12584 3.60808 2.49416 2.68727 3.15289 1.99004C3.81151 1.29281 4.71122 0.871133 5.66986 0.810285C5.72787 0.349531 6.06244 0 6.46955 0C6.87655 0 7.20831 0.348113 7.26196 0.797285H7.26186C8.23069 0.843936 9.14466 1.25946 9.81521 1.95821C10.4859 2.65707 10.862 3.58575 10.866 4.55281V8.30838C10.9825 8.99524 11.2827 9.63797 11.7352 10.1688H12.5537C12.6732 10.1655 12.7888 10.2116 12.8733 10.296C12.9577 10.3805 13.0034 10.4959 12.9998 10.6151L12.9999 10.6152ZM7.51122 12.2258H5.39339C5.25465 12.2258 5.12653 12.2995 5.05721 12.4193C4.98779 12.5391 4.98779 12.6866 5.05721 12.8064C5.12653 12.9262 5.25465 13 5.39339 13H7.51122C7.64996 13 7.77808 12.9262 7.84751 12.8064C7.91682 12.6866 7.91682 12.5391 7.84751 12.4193C7.77809 12.2995 7.64996 12.2258 7.51122 12.2258Z" fill="#B70019"/>
</svg>
