<svg width="15" height="17" viewBox="0 0 15 17" fill="none" xmlns="http://www.w3.org/2000/svg">
<path d="M14.8784 13.66C14.5103 12.6221 13.8475 11.7357 12.9107 11.0271C12.5497 10.7525 12.1913 10.5913 11.8158 10.5346C11.6699 10.5126 11.5202 10.5068 11.3706 10.5169C10.8748 10.5525 10.38 10.6904 9.85841 10.9387C9.69411 11.0179 9.50511 11.0413 9.29744 11.01C9.0442 10.9717 8.78477 10.8497 8.62001 10.6917C7.42422 9.54288 6.45775 8.29496 5.66498 6.87748C5.50963 6.59846 5.44555 6.03382 5.80503 5.70748C6.22472 5.32721 6.52242 4.93499 6.71624 4.50877C6.92408 4.04928 6.91374 3.55266 6.68412 2.99188C6.25779 1.94021 5.56336 1.07561 4.62101 0.421187C4.31573 0.20902 3.989 0.0753185 3.6488 0.0236843C3.08072 -0.0622429 2.50876 0.0866589 1.99502 0.453761C1.52284 0.790591 1.09338 1.15813 0.593721 1.60598C0.135884 2.01612 0.072556 2.55997 0.0163837 3.03936L0.0148396 3.0494C-0.0443014 3.65994 0.0729013 4.41022 0.37416 5.34353C0.883584 6.92281 1.72716 8.47669 2.95457 10.0945C3.20672 10.4273 4.21566 11.7298 4.47541 12.0576C5.73745 13.6525 7.05581 14.8896 8.5059 15.839C9.36307 16.4007 10.0916 16.7422 10.7333 16.8838L10.7441 16.8857C10.8765 16.9124 11.0184 16.9406 11.1575 16.9616C11.5005 17.0136 11.9503 17.0456 12.3908 16.8324C13.0069 16.5342 13.5185 16.2724 14.0106 15.9641C14.8755 15.424 15.1996 14.5626 14.8784 13.6601L14.8784 13.66ZM3.68151 3.12603C3.02788 2.28222 2.83608 1.37201 3.25332 1.09317C3.67056 0.814149 4.53884 1.27206 5.19247 2.11586C5.8461 2.95967 6.0379 3.86988 5.62082 4.14873C5.20342 4.42789 4.33518 3.96999 3.68151 3.12603ZM13.8427 14.8333C13.4255 15.1124 12.5572 14.6544 11.9036 13.8106C11.2499 12.9668 11.0581 12.0566 11.4752 11.7778C11.8923 11.4989 12.7607 11.9567 13.4144 12.8005C14.0683 13.6443 14.26 14.5545 13.8427 14.8333Z" fill="#B70019"/>
</svg>
