<svg width="11" height="12" viewBox="0 0 11 12" fill="none" xmlns="http://www.w3.org/2000/svg">
<path d="M5.50006 3.42791e-06C4.68971 3.42791e-06 3.91242 0.305931 3.33939 0.850397C2.76646 1.39488 2.44446 2.13323 2.44446 2.9032V4.64504L2.2407 4.64518C1.64646 4.64518 1.07652 4.86942 0.656335 5.26878C0.236008 5.668 0 6.20951 0 6.77412V9.87092C0 10.4355 0.236019 10.977 0.656335 11.3764C1.07652 11.7756 1.64646 12 2.2407 12H8.7593C9.35354 12 9.92349 11.7756 10.3437 11.3764C10.764 10.977 11 10.4355 11 9.87092V6.77412C11 6.20951 10.764 5.668 10.3437 5.26878C9.92349 4.86941 9.35354 4.64518 8.7593 4.64518H8.55554V2.90319C8.55554 2.13326 8.23355 1.39488 7.66061 0.850394C7.08754 0.305907 6.31041 3.42791e-06 5.50006 3.42791e-06ZM3.66677 2.9032C3.66677 2.28094 4.01618 1.7058 4.58342 1.39475C5.15067 1.08355 5.84949 1.08355 6.4167 1.39475C6.98395 1.7058 7.33334 2.28094 7.33334 2.9032V4.64504L3.66663 4.64518L3.66677 2.9032Z" fill="#B70019"/>
</svg>
