<svg width="29" height="30" viewBox="0 0 29 30" fill="none" xmlns="http://www.w3.org/2000/svg">
<path d="M28.8066 15.3301C28.8148 12.1072 27.7416 8.97477 25.7591 6.43363C23.7766 3.89286 20.9991 2.09007 17.8712 1.31438C14.7429 0.538389 11.4452 0.833873 8.50486 2.15382C5.56484 3.47347 3.15209 5.74121 1.65301 8.59414C0.15393 11.4474 -0.34499 14.7206 0.236012 17.8909C0.816766 21.0609 2.44419 23.9446 4.85783 26.0803L4.96247 26.1589C5.19804 26.3685 5.44707 26.5649 5.69579 26.7482L6.00999 26.9969L6.7693 27.5075L7.13581 27.7171C7.39769 27.8743 7.65957 28.0181 7.92145 28.149L8.32743 28.3455L9.12624 28.686L9.58453 28.8561L10.3702 29.1179L10.9202 29.262L11.6667 29.4321L12.4 29.5368L13.0939 29.7335C13.5391 29.7335 14.0105 29.7989 14.4688 29.7989C14.9271 29.7989 15.3985 29.7989 15.8437 29.7335L16.446 29.6417L17.1794 29.5371L17.9259 29.367L18.4759 29.2229L19.2616 28.961L19.7199 28.7909L20.5187 28.4504L20.9246 28.254L21.7103 27.822L22.0768 27.6124L22.8361 27.1018L23.1503 26.8531C23.399 26.6698 23.6478 26.4734 23.8836 26.2639L23.9883 26.1852V26.1849C25.5209 24.8255 26.7441 23.1529 27.5754 21.2805C28.4066 19.4079 28.8266 17.3786 28.8067 15.33L28.8066 15.3301ZM2.61853 15.3301C2.60976 11.4469 4.51485 7.80813 7.71114 5.60309C10.9075 3.39783 14.9854 2.90886 18.6129 4.29601C22.2398 5.68315 24.9509 8.76788 25.8605 12.543C26.7697 16.3184 25.7611 20.2992 23.1633 23.1858C20.9286 20.7024 17.7445 19.2842 14.4038 19.2842C11.0631 19.2842 7.87867 20.7023 5.64423 23.1858C3.69651 21.0327 2.61853 18.2326 2.61943 15.3294L2.61853 15.3301ZM21.2121 24.9411C20.7301 25.2705 20.2271 25.5681 19.7063 25.8317L19.5885 25.8971C18.5748 26.3958 17.4943 26.7441 16.3804 26.9315H16.0531C14.96 27.1057 13.8464 27.1057 12.7532 26.9315H12.4259C11.2942 26.7491 10.1955 26.4004 9.16553 25.8971V25.8054C8.6447 25.5417 8.14165 25.2442 7.65972 24.9151C9.39816 22.9776 11.8785 21.8707 14.4818 21.8707C17.0848 21.8707 19.5651 22.9776 21.3039 24.9151L21.2121 24.9411Z" fill="#FFC700"/>
<path d="M14.4036 17.9489C15.7928 17.9489 17.125 17.397 18.1071 16.4147C19.0894 15.4326 19.6413 14.1004 19.6413 12.7113C19.6413 11.3221 19.0894 9.98986 18.1071 9.00781C17.125 8.02545 15.7928 7.47363 14.4036 7.47363C13.0145 7.47363 11.6822 8.02545 10.7002 9.00781C9.71784 9.98986 9.16602 11.3221 9.16602 12.7113C9.16602 14.1004 9.71784 15.4326 10.7002 16.4147C11.6822 17.397 13.0145 17.9489 14.4036 17.9489ZM14.4036 10.0924C15.0981 10.0924 15.7642 10.3684 16.2555 10.8594C16.7465 11.3507 17.0224 12.0168 17.0224 12.7113C17.0224 13.4057 16.7465 14.0718 16.2555 14.5631C15.7642 15.0541 15.0981 15.3301 14.4036 15.3301C13.7092 15.3301 13.043 15.0541 12.5518 14.5631C12.0607 14.0718 11.7848 13.4057 11.7848 12.7113C11.7848 12.0168 12.0607 11.3507 12.5518 10.8594C13.0431 10.3684 13.7092 10.0924 14.4036 10.0924Z" fill="#FFC700"/>
</svg>
