<svg width="33" height="29" viewBox="0 0 33 29" fill="none" xmlns="http://www.w3.org/2000/svg">
<path d="M32.2706 10.8123C32.1955 10.599 31.9813 10.4529 31.7392 10.4529L20.2893 10.4531L16.7512 0.319936C16.6012 -0.106645 15.8385 -0.106645 15.6883 0.319936L12.1509 10.4531H0.701613C0.459435 10.4531 0.245249 10.599 0.170134 10.8125C0.0950191 11.0271 0.176963 11.262 0.373394 11.3939L9.63586 17.6561L6.09782 27.7882C6.0227 28.0027 6.10464 28.2376 6.30039 28.3696C6.49683 28.5041 6.76154 28.5041 6.95796 28.3696L16.2198 22.1074L25.4829 28.3696C25.5805 28.437 25.6957 28.4698 25.8111 28.4698C25.9265 28.4698 26.0417 28.4367 26.14 28.3696C26.3358 28.2374 26.4177 28.0028 26.3426 27.7882L22.8045 17.6561L32.0676 11.3939C32.2633 11.2618 32.3455 11.0269 32.2706 10.8123Z" fill="#FFC700"/>
</svg>
