<svg width="23" height="28" viewBox="0 0 23 28" fill="none" xmlns="http://www.w3.org/2000/svg">
<path fill-rule="evenodd" clip-rule="evenodd" d="M22.9998 11.5295C22.9998 5.17149 17.8395 0 11.4999 0C5.16021 0 0 5.17149 0 11.5295V16.4705C0 18.2824 1.47859 19.7646 3.28569 19.7646C5.09293 19.7646 6.57137 18.2824 6.57137 16.4705V14.8234C6.57137 13.0117 5.09293 11.5295 3.28569 11.5295C3.28569 6.98849 6.97054 3.29399 11.5 3.29399C16.0295 3.29399 19.7144 6.98834 19.7144 11.5295C17.9071 11.5295 16.4287 13.0117 16.4287 14.8234V16.4705C16.4287 18.2824 17.9071 19.7646 19.7144 19.7646V22.2353C19.7144 22.6882 19.3446 23.0588 18.8928 23.0588H14.3307C13.7607 22.0789 12.7127 21.4117 11.5001 21.4117C9.68645 21.4117 8.21444 22.8859 8.21444 24.7059C8.21444 26.526 9.68645 28 11.5001 28C12.7126 28 13.7607 27.333 14.3307 26.353H18.8928C21.1616 26.353 23 24.51 23 22.2354L22.9998 11.5295Z" fill="#B70019"/>
</svg>
