<svg width="25" height="28" viewBox="0 0 25 28" fill="none" xmlns="http://www.w3.org/2000/svg">
<path d="M23.9984 6.81952C23.9984 6.06362 23.3826 5.44774 22.6267 5.44774H4.7102L7.70571 2.3964C8.23766 1.86445 8.23766 0.996673 7.70571 0.436834C7.42569 0.15681 7.08983 0.0449219 6.72581 0.0449219C6.36178 0.0449219 6.02594 0.184934 5.7459 0.436834L0.398958 5.83976C-0.132986 6.37171 -0.132986 7.23949 0.398958 7.77143L5.77389 13.2024C6.0258 13.4543 6.38977 13.6222 6.7538 13.6222C7.11783 13.6222 7.45366 13.4822 7.73371 13.2303C7.98561 12.9784 8.15354 12.6144 8.15354 12.2504C8.15354 11.8863 8.01353 11.5226 7.76163 11.2705L4.65425 8.19138H22.5987C23.3825 8.19138 23.9982 7.5755 23.9982 6.8196L23.9984 6.81952Z" fill="#C21E15"/>
<path d="M17.6439 27.5075C18.0079 27.5075 18.3717 27.3675 18.6238 27.0877L23.9987 21.6567C24.5307 21.1248 24.5307 20.257 23.9987 19.7251L18.6238 14.3501C18.0919 13.8182 17.2241 13.8182 16.6642 14.3501C16.1323 14.8821 16.1323 15.7499 16.6642 16.3097L19.6876 19.3331H1.77119C1.01529 19.3331 0.399414 19.949 0.399414 20.7049C0.399414 21.4608 1.01529 22.0766 1.77119 22.0766H19.7156L16.6641 25.1559C16.4122 25.4078 16.2722 25.7718 16.2722 26.1358C16.2722 26.4999 16.4122 26.8357 16.692 27.1158C16.9441 27.3675 17.28 27.5075 17.644 27.5075L17.6439 27.5075Z" fill="#C21E15"/>
</svg>
