<svg width="13" height="13" viewBox="0 0 13 13" fill="none" xmlns="http://www.w3.org/2000/svg">
<path fill-rule="evenodd" clip-rule="evenodd" d="M6.31024 12.5052L5.38686 12.9188C4.98519 13.0987 4.51253 12.972 4.25468 12.6155L3.66176 11.7956C3.58422 11.6884 3.46469 11.6193 3.33301 11.6058L2.32653 11.5023C1.88879 11.4572 1.54279 11.1112 1.49773 10.6735L1.39425 9.66702C1.38074 9.53534 1.31164 9.41582 1.20444 9.33827L0.384529 8.74535C0.0280408 8.48753 -0.0986514 8.01484 0.0811832 7.61317L0.494808 6.68979C0.548858 6.56908 0.548858 6.43097 0.494808 6.31024L0.0811832 5.38686C-0.0986537 4.98519 0.0280385 4.51253 0.384529 4.25468L1.20444 3.66176C1.31164 3.58422 1.38074 3.46469 1.39425 3.33301L1.49773 2.32653C1.5428 1.88879 1.88879 1.54279 2.32653 1.49773L3.33301 1.39425C3.46469 1.38074 3.58422 1.31164 3.66176 1.20444L4.25468 0.384529C4.5125 0.0280408 4.98519 -0.0986514 5.38686 0.0811832L6.31024 0.494807C6.43095 0.548858 6.56906 0.548858 6.68979 0.494807L7.61317 0.0811832C8.01484 -0.0986537 8.48751 0.0280385 8.74535 0.384529L9.33827 1.20444C9.41581 1.31164 9.53534 1.38074 9.66702 1.39425L10.6735 1.49773C11.1112 1.5428 11.4572 1.88879 11.5023 2.32653L11.6058 3.33301C11.6193 3.46469 11.6884 3.58422 11.7956 3.66176L12.6155 4.25468C12.972 4.5125 13.0987 4.98519 12.9188 5.38686L12.5052 6.31024C12.4512 6.43095 12.4512 6.56906 12.5052 6.68979L12.9188 7.61317C13.0987 8.01484 12.972 8.48751 12.6155 8.74535L11.7956 9.33827C11.6884 9.41581 11.6193 9.53534 11.6058 9.66702L11.5023 10.6735C11.4572 11.1112 11.1112 11.4572 10.6735 11.5023L9.66702 11.6058C9.53534 11.6193 9.41582 11.6884 9.33827 11.7956L8.74535 12.6155C8.48753 12.972 8.01484 13.0987 7.61317 12.9188L6.68979 12.5052C6.56908 12.4512 6.43097 12.4512 6.31024 12.5052ZM3.99122 5.62155L3.20323 6.40954L5.84852 9.05482L9.9093 4.99403L9.12139 4.20604L5.84856 7.47863L3.99122 5.62155Z" fill="#FFC700"/>
</svg>
